#include <stdint.h>
#include "../notes.h"

// notes of the moledy followed by the duration.
// a 4 means a quarter note, 8 an eighteenth , 16 sixteenth, so on
// !!negative numbers are used to represent dotted notes,
// so -4 means a dotted quarter note, that is, a quarter plus an eighteenth!!

// We Wish You a Merry Christmas
// Score available at https://musescore.com/user/6208766/scores/1497501
const int16_t we_wish_you_1[] = 
{
  NOTE_C5,4, //1
  NOTE_F5,4, NOTE_F5,8, NOTE_G5,8, NOTE_F5,8, NOTE_E5,8,
  NOTE_D5,4, NOTE_D5,4, NOTE_D5,4,
  NOTE_G5,4, NOTE_G5,8, NOTE_A5,8, NOTE_G5,8, NOTE_F5,8,
  NOTE_E5,4, NOTE_C5,4, NOTE_C5,4,
  NOTE_A5,4, NOTE_A5,8, NOTE_AS5,8, NOTE_A5,8, NOTE_G5,8,
  NOTE_F5,4, NOTE_D5,4, NOTE_C5,8, NOTE_C5,8,
  NOTE_D5,4, NOTE_G5,4, NOTE_E5,4,
  NOTE_F5,2
};
  
const int16_t we_wish_you_2[] = 
{
  NOTE_C5,4, //16
  NOTE_F5,4, NOTE_F5,4, NOTE_F5,4,
  NOTE_E5,2, NOTE_E5,4,
  NOTE_F5,4, NOTE_E5,4, NOTE_D5,4,
  NOTE_C5,2, NOTE_A5,4,
  NOTE_AS5,4, NOTE_A5,4, NOTE_G5,4,
  NOTE_C6,4, NOTE_C5,4, NOTE_C5,8, NOTE_C5,8,
  NOTE_D5,4, NOTE_G5,4, NOTE_E5,4,
  NOTE_F5,2
};
